<svg xmlns="http://www.w3.org/2000/svg" viewBox="0 0.25 146.85000610351562 41.29999923706055" data-asc="0.785" width="146.85000610351562" height="41.29999923706055"><defs/><g fill="#0bf0f4"><g transform="translate(0, 0)"><path d="M22.95 4.60Q23.30 4.35 23.25 4.57Q23.20 4.80 23.10 4.95Q22.65 5.65 21.93 6.15Q21.20 6.65 20.38 6.95Q19.55 7.25 18.75 7.40Q17.95 7.55 17.35 7.55Q15.80 7.55 14.15 7.25Q12.50 6.95 10.85 6.60Q10.75 6.60 10.50 6.50Q10.25 6.40 10.25 6.30Q10.15 6.15 10.43 6.05Q10.70 5.95 10.80 5.95Q11.15 5.85 11.72 5.77Q12.30 5.70 12.95 5.65Q13.60 5.60 14.18 5.60Q14.75 5.60 15.15 5.60Q16.25 5.70 17.43 5.70Q18.60 5.70 19.65 5.60Q20.70 5.50 21.57 5.25Q22.45 5 22.95 4.60M23.65 2.95Q23.90 2.85 23.80 3Q23.70 3.15 23.65 3.20Q22.35 4.35 20.80 4.65Q19.25 4.95 17.57 4.88Q15.90 4.80 14.13 4.57Q12.35 4.35 10.55 4.45Q9.50 4.50 8.35 4.85Q7.20 5.20 6.18 5.82Q5.15 6.45 4.33 7.42Q3.50 8.40 3.05 9.65Q2.95 9.85 2.92 9.85Q2.90 9.85 2.88 9.80Q2.85 9.75 2.85 9.65Q2.85 9.55 2.85 9.50Q3.15 7.70 3.95 6.45Q4.75 5.20 5.85 4.42Q6.95 3.65 8.25 3.30Q9.55 2.95 10.85 2.90Q12.65 2.85 14.38 3.02Q16.10 3.20 17.73 3.35Q19.35 3.50 20.85 3.48Q22.35 3.45 23.65 2.95M7.20 6.85Q7.30 7 6.90 7.35Q6.50 7.70 6.30 7.80Q5.90 8.10 5.55 8.38Q5.20 8.65 4.90 9.05Q4.50 9.50 4.23 9.95Q3.95 10.40 3.70 10.95Q3.60 11.30 3.50 11.30Q3.45 11.30 3.45 10.95L3.45 10.60Q3.55 9.85 3.75 9.25Q3.95 8.65 4.45 8Q4.65 7.70 5.13 7.42Q5.60 7.15 6.05 6.95Q6.50 6.75 6.85 6.70Q7.20 6.65 7.20 6.85M20.70 7.95Q20.95 7.85 20.93 7.97Q20.90 8.10 20.80 8.20Q20.15 8.95 18.93 9.30Q17.70 9.65 16.30 9.77Q14.90 9.90 13.53 9.85Q12.15 9.80 11.25 9.80Q11.55 10.80 11.53 12.22Q11.50 13.65 11.28 15.27Q11.05 16.90 10.70 18.55Q10.35 20.20 10 21.65Q11.35 21.75 12.65 21.93Q13.95 22.10 15.15 22.18Q16.35 22.25 17.45 22.18Q18.55 22.10 19.60 21.70Q19.85 21.60 19.85 21.75Q19.85 21.90 19.75 22Q18.55 23.20 17.10 23.50Q15.65 23.80 14.05 23.70Q12.45 23.60 10.80 23.35Q9.15 23.10 7.50 23.15Q6.45 23.20 5.40 23.50Q4.35 23.80 3.38 24.40Q2.40 25 1.57 25.88Q0.75 26.75 0.25 27.95Q0.20 28.15 0.10 28.15Q0 28.15 0 27.98Q0 27.80 0.05 27.70Q0.30 26.25 0.90 25.30Q1.50 24.35 2.35 23.65Q3.20 20.05 4.28 16.45Q5.35 12.85 6.05 9.65Q6.00 9.65 5.73 9.63Q5.45 9.60 5.45 9.50Q5.45 9.40 5.60 9.30Q5.75 9.20 5.90 9.10Q8 8.10 10.20 8.02Q12.40 7.95 14.70 8.15Q16.15 8.25 17.63 8.35Q19.10 8.45 20.70 7.95M9.70 9.80Q9.75 11.05 9.70 12.15Q9.65 13.25 9.40 14.10Q8.95 15.90 8.40 17.85Q7.85 19.80 7.15 21.65Q7.35 21.60 7.60 21.60Q7.85 21.60 8.10 21.60L8.85 19.25Q9.55 17.05 10.13 14.70Q10.70 12.35 10.85 9.80L9.70 9.80M7.55 9.75Q7.15 12.75 6.10 15.90Q5.05 19.05 4.20 22.35Q4.60 22.20 4.93 22.07Q5.25 21.95 5.55 21.85Q5.80 20.85 6.05 19.92Q6.30 19 6.55 18.30Q6.65 18 6.90 17.15Q7.15 16.30 7.45 15.10Q7.75 13.90 8.05 12.50Q8.35 11.10 8.50 9.75L7.55 9.75M19.15 23.35Q19.40 23.15 19.38 23.38Q19.35 23.60 19.25 23.70Q18.85 24.40 18.23 24.95Q17.60 25.50 16.90 25.82Q16.20 26.15 15.48 26.32Q14.75 26.50 14.20 26.45Q12.65 26.35 10.95 26.02Q9.25 25.70 7.70 25.35Q7.60 25.30 7.38 25.23Q7.15 25.15 7.15 25Q7.10 24.90 7.33 24.77Q7.55 24.65 7.65 24.65Q8 24.55 8.53 24.50Q9.05 24.45 9.63 24.40Q10.20 24.35 10.72 24.38Q11.25 24.40 11.60 24.45Q12.50 24.55 13.57 24.55Q14.65 24.55 15.73 24.40Q16.80 24.25 17.70 24Q18.60 23.75 19.15 23.35M20.25 32.75Q20.35 32.70 20.35 32.80Q20.35 32.90 20.30 33Q19.20 34.20 17.88 34.50Q16.55 34.80 15.10 34.73Q13.65 34.65 12.15 34.35Q10.65 34.05 9.20 34.05Q7.35 34 5.43 34.90Q3.50 35.80 2.20 38Q2.05 38.20 2 38.20Q1.95 38.20 1.98 38.05Q2 37.90 2 37.85Q2.20 37.30 2.38 37Q2.55 36.70 2.75 36.30Q2.05 34.90 1.75 33.48Q1.45 32.05 1.40 30.50Q1.40 29.35 1.60 28.80Q1.80 28.25 2.95 27.65Q4.85 26.65 7.00 26.65Q9.15 26.65 11.30 26.90Q12.70 27.05 14.10 27.13Q15.50 27.20 17 26.70Q17.25 26.60 17.20 26.77Q17.15 26.95 17.05 27.05Q16.40 27.85 15.25 28.15Q14.10 28.45 12.80 28.52Q11.50 28.60 10.30 28.55Q9.10 28.50 8.40 28.55L8.10 28.55Q7.75 29.75 7.38 30.82Q7.00 31.90 6.65 32.90Q7.40 32.65 8.07 32.52Q8.75 32.40 9.50 32.45Q10.95 32.50 12.40 32.75Q13.85 33 15.23 33.17Q16.60 33.35 17.88 33.33Q19.15 33.30 20.25 32.75M6.40 28.50Q6.10 28.45 5.48 28.38Q4.85 28.30 4.10 28.40Q3.60 28.45 3.25 28.80Q2.90 29.15 2.85 29.65Q2.75 31.15 2.90 32.52Q3.05 33.90 3.40 35.35L4.00 34.60Q3.95 34 3.95 33.30Q3.95 32.60 4.03 32.02Q4.10 31.45 4.20 31.10Q4.30 30.75 4.45 30.75Q4.55 30.75 4.60 31Q4.65 31.25 4.70 31.55Q4.75 31.85 4.78 32.15Q4.80 32.45 4.80 32.60Q4.85 32.90 4.88 33.17Q4.90 33.45 4.95 33.75Q5.20 33.60 5.40 33.45Q5.60 33.30 5.85 33.20Q5.90 30.95 6.40 28.50M19.90 34.40Q19.90 34.55 19.80 34.75Q19.50 35.45 18.95 35.98Q18.40 36.50 17.75 36.85Q17.10 37.20 16.43 37.38Q15.75 37.55 15.25 37.55Q13.50 37.55 12.07 37.15Q10.65 36.75 9.25 36.25Q9.15 36.20 8.95 36.10Q8.75 36 8.70 35.85Q8.65 35.75 8.90 35.65Q9.15 35.55 9.25 35.55Q9.55 35.50 10.03 35.48Q10.50 35.45 11.03 35.45Q11.55 35.45 12.05 35.48Q12.55 35.50 12.90 35.50Q13.75 35.55 14.75 35.58Q15.75 35.60 16.68 35.48Q17.60 35.35 18.43 35.10Q19.25 34.85 19.70 34.40Q19.85 34.25 19.90 34.40M4.35 25.40Q4.35 25.55 4.03 25.85Q3.70 26.15 3.28 26.50Q2.85 26.85 2.48 27.15Q2.10 27.45 2 27.55Q1.60 27.95 1.25 28.32Q0.90 28.70 0.65 29.25Q0.40 29.70 0.40 29.38Q0.40 29.05 0.45 28.90Q0.55 28.50 0.78 27.82Q1 27.15 1.65 26.50Q1.95 26.25 2.38 25.98Q2.80 25.70 3.23 25.52Q3.65 25.35 3.98 25.30Q4.30 25.25 4.35 25.40M18.05 37.80Q18.10 38 17.90 38.10Q17.30 38.60 16.23 38.83Q15.15 39.05 13.93 39.15Q12.70 39.25 11.55 39.25Q10.40 39.25 9.70 39.25Q8.45 39.25 7.08 39.08Q5.70 38.90 4.70 38.65Q4.60 38.60 4.43 38.58Q4.25 38.55 4.25 38.45Q4.25 38.35 4.43 38.27Q4.60 38.20 4.70 38.15Q6.60 37.55 8.57 37.63Q10.55 37.70 12.55 37.95Q13.80 38.15 15.07 38.25Q16.35 38.35 17.75 37.80Q18.05 37.70 18.05 37.80M6.20 36.10Q6.20 36.25 5.88 36.48Q5.55 36.70 5.15 36.95Q4.75 37.20 4.38 37.42Q4.00 37.65 3.85 37.75Q3.45 38.10 3.15 38.35Q2.85 38.60 2.55 39Q2.30 39.25 2.20 39.25L2.15 39.25L2.15 39.20Q2.15 39.20 2.15 39.10Q2.40 38.35 2.67 37.85Q2.95 37.35 3.65 36.80Q3.95 36.60 4.35 36.38Q4.75 36.15 5.15 36.02Q5.55 35.90 5.85 35.90Q6.15 35.90 6.20 36.10ZM34 3.10Q33.80 2.65 33.90 2.65Q34.05 2.65 34.25 2.88Q34.45 3.10 34.50 3.15Q35 3.90 35.60 4.77Q36.20 5.65 36.75 6.85Q37.30 8.05 37.75 9.63Q38.20 11.20 38.45 13.35Q38.75 15.80 38.58 18.17Q38.40 20.55 38 22.95Q37.95 23.05 37.90 23.45Q37.85 23.85 37.70 23.85Q37.60 23.85 37.50 23.48Q37.40 23.10 37.40 22.95Q37.30 22.40 37.20 21.65Q37.10 20.90 37.03 20.07Q36.95 19.25 36.93 18.47Q36.90 17.70 36.90 17.10Q36.90 16.90 36.88 16.22Q36.85 15.55 36.80 14.65Q36.75 13.75 36.63 12.67Q36.50 11.60 36.35 10.55Q36.45 12.10 36.35 13.65Q36.25 15.20 36.10 16.77Q35.95 18.35 35.85 19.92Q35.75 21.50 35.85 23.10Q36 26.20 37.10 29.40Q38.20 32.60 40.60 34.85Q40.90 35.15 40.85 35.15Q40.75 35.20 40.50 35.05Q38.75 34.05 37.60 32.65Q36.45 31.25 35.73 29.60Q35 27.95 34.65 26.17Q34.30 24.40 34.25 22.60Q34.25 22.45 34.23 22.32Q34.20 22.20 34.20 22.05Q33.20 24.90 31.98 27.55Q30.75 30.20 29.58 32.65Q28.40 35.10 27.38 37.27Q26.35 39.45 25.75 41.30Q25.65 41.55 25.60 41.55Q25.50 41.55 25.50 41.40Q25.50 41.25 25.50 41.20Q25.55 38.85 26.45 36.27Q27.35 33.70 28.58 30.92Q29.80 28.15 31.15 25.23Q32.50 22.30 33.50 19.25Q34.10 17.30 34.53 15.20Q34.95 13.10 35.05 11Q35.15 8.90 34.90 6.88Q34.65 4.85 34 3.10M40.20 31.90Q40.75 33.05 41.65 34.05Q42 31.95 43 29.88Q44 27.80 45.28 25.70Q46.55 23.60 47.95 21.50Q49.35 19.40 50.55 17.25Q51.45 15.70 52.08 13.90Q52.70 12.10 52.98 10.22Q53.25 8.35 53.13 6.50Q53 4.65 52.35 3Q52.20 2.75 52.30 2.65Q52.40 2.55 52.63 2.77Q52.85 3 52.90 3.10Q53.50 3.95 53.88 5.32Q54.25 6.70 54.42 8.38Q54.60 10.05 54.60 11.90Q54.60 13.75 54.45 15.60Q54.25 18.05 53.73 20.95Q53.20 23.85 52.45 26.25Q52.40 26.35 52.28 26.70Q52.15 27.05 52 27.05Q51.90 27 51.85 26.63Q51.80 26.25 51.80 26.15Q51.80 25.60 51.83 24.82Q51.85 24.05 51.90 23.22Q51.95 22.40 52.03 21.63Q52.10 20.85 52.20 20.30Q52.25 20 52.38 18.92Q52.50 17.85 52.60 16.50Q52 17.90 51.65 19Q51.30 20.10 51.05 21.15Q50.80 22.20 50.63 23.35Q50.45 24.50 50.30 26.05Q50.15 27.60 50.18 29.30Q50.20 31 50.53 32.65Q50.85 34.30 51.48 35.88Q52.10 37.45 53.10 38.75Q53.30 39.05 53.20 39.10Q53.10 39.15 52.95 39Q51.35 37.70 50.43 36.08Q49.50 34.45 49.05 32.65Q48.60 30.85 48.58 28.98Q48.55 27.10 48.75 25.30Q48.85 24.65 48.93 24Q49 23.35 49.10 22.65Q47.95 24.50 46.80 26.25Q45.65 28 44.65 29.73Q43.65 31.45 42.88 33.13Q42.10 34.80 41.70 36.45Q41.60 36.70 41.60 36.70Q41.50 36.70 41.50 36.50Q41.50 36.30 41.50 36.25Q41.50 35.85 41.50 35.45Q41.50 35.05 41.60 34.65Q41.20 34.45 40.90 34.27Q40.60 34.10 40.33 33.85Q40.05 33.60 39.78 33.25Q39.50 32.90 39.20 32.35Q38.95 31.85 38.70 31.15Q38.45 30.45 38.28 29.77Q38.10 29.10 38.08 28.63Q38.05 28.15 38.20 28.15Q38.30 28.15 38.43 28.32Q38.55 28.50 38.70 28.75Q38.85 29 38.95 29.25Q39.05 29.50 39.10 29.60Q39.35 30.20 39.63 30.77Q39.90 31.35 40.20 31.90M41.25 22.65Q42.35 20.50 43.53 18.47Q44.70 16.45 45.40 15.25Q46.60 13.10 47.90 11.02Q49.20 8.95 50.15 7.35Q50.25 7.10 50.38 6.90Q50.50 6.70 50.60 6.80Q50.70 6.80 50.65 7.05Q50.60 7.30 50.55 7.55Q49.85 11.15 48.03 14.35Q46.20 17.55 44.20 20.80Q43.50 21.90 42.98 22.63Q42.45 23.35 42.08 24.02Q41.70 24.70 41.45 25.50Q41.20 26.30 41.10 27.55Q41.30 27 41.55 26.50Q41.80 26 42.05 25.55Q43.45 23.15 45.20 20.75Q46.95 18.35 48.65 16.25Q48.75 16.15 49.03 15.82Q49.30 15.50 49.40 15.55Q49.50 15.60 49.38 16Q49.25 16.40 49.20 16.60Q48.95 17.15 48.58 17.95Q48.20 18.75 47.78 19.57Q47.35 20.40 46.90 21.18Q46.45 21.95 46.10 22.45Q45.90 22.75 45.25 23.65Q44.60 24.55 43.85 25.90Q43.10 27.25 42.38 28.95Q41.65 30.65 41.30 32.55Q41.15 32.25 40.93 31.80Q40.70 31.35 40.40 30.35Q39.50 27.20 39.43 23.98Q39.35 20.75 39.40 17.35Q39.45 15.20 39.43 13.05Q39.40 10.90 38.70 8.50Q38.65 8.30 38.70 8.20Q38.80 8.20 39 8.50Q39.90 9.45 40.35 11.27Q40.80 13.10 41 15.13Q41.20 17.15 41.23 19.07Q41.25 21 41.25 22.15L41.25 22.65M28.10 18.30Q28.95 15.70 30.03 13.05Q31.10 10.40 31.90 8.30Q32 8.05 32.13 7.80Q32.25 7.55 32.35 7.60Q32.45 7.60 32.43 7.92Q32.40 8.25 32.40 8.50Q31.95 12.60 30.60 16.65Q29.25 20.70 27.60 24.65Q26.60 27.15 25.45 29.67Q24.30 32.20 23.55 35.15Q23.45 35.40 23.48 35.45Q23.50 35.50 23.45 35.50Q23.30 35.40 23.30 35.05Q23.05 33.55 23.60 31.27Q24.15 29 25.00 26.57Q25.85 24.15 26.75 21.93Q27.65 19.70 28.10 18.30M25.95 30.20Q27.20 27.35 28.65 24.32Q30.10 21.30 31.45 18.55Q31.50 18.40 31.73 18Q31.95 17.60 32.15 17.65Q32.25 17.65 32.20 18.10Q32.15 18.55 32.05 18.75Q31.90 19.45 31.65 20.43Q31.40 21.40 31.08 22.43Q30.75 23.45 30.40 24.42Q30.05 25.40 29.75 26.05Q29.60 26.35 29.23 27.32Q28.85 28.30 28.33 29.65Q27.80 31 27.23 32.52Q26.65 34.05 26.15 35.42Q25.65 36.80 25.28 37.88Q24.90 38.95 24.85 39.40Q24.75 39.90 24.65 39.90Q24.55 39.90 24.53 39.70Q24.50 39.50 24.45 39.40Q24.20 38.80 24.23 37.65Q24.25 36.50 24.50 35.20Q24.75 33.90 25.13 32.55Q25.50 31.20 25.95 30.20M55.75 25.90Q55.50 28.15 54.98 30.40Q54.45 32.65 54.05 34.40Q53.85 35.05 53.75 35Q53.65 35 53.63 34.77Q53.60 34.55 53.55 34.30Q53.15 30.95 53.65 27.60Q54.15 24.25 54.75 20.75Q55.15 18.65 55.40 16.42Q55.65 14.20 55.40 11.65Q55.40 11.45 55.50 11.35Q55.60 11.35 55.63 11.47Q55.65 11.60 55.75 11.65Q56.50 12.75 56.63 14.67Q56.75 16.60 56.60 18.70Q56.45 20.80 56.17 22.75Q55.90 24.70 55.75 25.90M33.10 6.80Q33 5.75 32.83 4.85Q32.65 3.95 32.40 3Q32.35 2.90 32.35 2.75Q32.35 2.60 32.40 2.60Q32.55 2.60 32.70 2.75L32.90 2.95Q33.45 3.70 33.80 4.42Q34.15 5.15 34.25 6.80Q34.30 7.45 34.25 8.40Q34.20 9.35 34.08 10.20Q33.95 11.05 33.78 11.65Q33.60 12.25 33.45 12.20Q33.35 12.20 33.30 11.92Q33.25 11.65 33.23 11.30Q33.20 10.95 33.20 10.57Q33.20 10.20 33.20 10.05Q33.20 9.20 33.20 8.42Q33.20 7.65 33.10 6.80M51.40 6.15Q51.35 5.25 51.23 4.45Q51.10 3.65 50.85 2.80Q50.80 2.70 50.78 2.55Q50.75 2.40 50.85 2.45Q50.95 2.55 51.03 2.60Q51.10 2.65 51.20 2.70L51.30 2.80Q51.85 3.50 52.18 4.15Q52.50 4.80 52.55 6.30Q52.55 6.85 52.43 7.70Q52.30 8.55 52.13 9.32Q51.95 10.10 51.73 10.63Q51.50 11.15 51.30 11.05Q51.20 11 51.20 10.72Q51.20 10.45 51.20 10.13Q51.20 9.80 51.25 9.50Q51.30 9.20 51.30 9.05Q51.40 8.25 51.43 7.55Q51.45 6.85 51.40 6.15M53.15 35.75Q53.45 36.60 53.83 37.30Q54.20 38 54.60 38.70Q54.65 38.75 54.70 38.88Q54.75 39 54.65 39Q54.50 39 54.42 38.95Q54.35 38.90 54.25 38.85Q54.15 38.80 54.10 38.75Q53.40 38.20 52.95 37.70Q52.50 37.20 52.05 35.90Q51.90 35.40 51.75 34.65Q51.60 33.90 51.55 33.20Q51.50 32.50 51.55 32Q51.60 31.50 51.80 31.50Q51.85 31.50 51.95 31.73Q52.05 31.95 52.13 32.23Q52.20 32.50 52.28 32.77Q52.35 33.05 52.40 33.15Q52.65 33.85 52.80 34.50Q52.95 35.15 53.15 35.75ZM77.35 21.65Q76.95 23.65 76 25.65Q75.05 27.65 74.20 29.40Q74.15 29.50 73.98 29.75Q73.80 30 73.70 30Q73.55 29.95 73.55 29.67Q73.55 29.40 73.55 29.30Q73.60 28.85 73.73 28.23Q73.85 27.60 73.95 26.92Q74.05 26.25 74.18 25.63Q74.30 25 74.45 24.50Q74.90 22.80 75.20 21.57Q75.50 20.35 75.65 19.35Q75.80 18.35 75.83 17.45Q75.85 16.55 75.70 15.50Q75.65 15.10 75.75 15Q75.85 14.95 76 15.10Q76.15 15.25 76.25 15.40Q77.10 16.75 77.40 18.38Q77.70 20 77.35 21.65M78.55 18.30Q79.20 19.25 79.20 20.80Q79.20 22.35 78.90 23.98Q78.60 25.60 78.15 27.10Q77.70 28.60 77.50 29.50Q77.10 31.25 76.40 33Q75.70 34.75 75.20 36.10Q75.15 36.25 75.05 36.42Q74.95 36.60 74.85 36.60Q74.75 36.60 74.75 36.40Q74.75 36.20 74.75 36.05Q74.60 33.30 75.35 30.67Q76.10 28.05 76.95 25.35Q77.45 23.70 77.90 21.97Q78.35 20.25 78.30 18.20Q78.30 18 78.35 18L78.55 18.30M73.85 17.45Q70.80 18.70 68.68 21.02Q66.55 23.35 65.40 26.25Q64.90 27.55 64.65 28.57Q64.40 29.60 64.25 30.80Q64.20 31.05 64.40 31.30Q64.60 31.55 64.80 31.30Q65.70 30.20 67.10 28.50Q68.50 26.80 69.90 24.90Q71.30 23 72.43 21.05Q73.55 19.10 73.85 17.45M70.50 34.40Q69.75 35.45 69.05 36.35Q68.35 37.25 67.50 37.92Q66.65 38.60 65.60 39Q64.55 39.40 63.20 39.45Q60.95 39.55 59.78 38.30Q58.60 37.05 58.15 35.25Q57.70 33.45 57.83 31.52Q57.95 29.60 58.35 28.35Q58.90 26.60 59.68 25.02Q60.45 23.45 61.33 22.18Q62.20 20.90 63.13 19.97Q64.05 19.05 64.95 18.55Q65 18.55 65.17 18.45Q65.35 18.35 65.35 18.50Q65.40 18.50 65.30 18.65Q65.20 18.80 65.10 18.90Q62.50 21.60 60.98 25Q59.45 28.40 59.25 32Q59.20 32.90 59.33 33.95Q59.45 35 59.83 35.92Q60.20 36.85 60.90 37.48Q61.60 38.10 62.80 38.10Q63.75 38.10 64.55 37.77Q65.35 37.45 66.05 36.92Q66.75 36.40 67.33 35.77Q67.90 35.15 68.35 34.60Q69.35 33.35 70.20 32Q70.20 31 70.33 30.05Q70.45 29.10 70.70 28.15Q70.85 27.45 70.98 27.02Q71.10 26.60 71.23 26.23Q71.35 25.85 71.48 25.42Q71.60 25 71.85 24.30Q71.05 25.70 70.28 26.92Q69.50 28.15 68.63 29.27Q67.75 30.40 66.83 31.48Q65.90 32.55 64.80 33.65Q63.95 34.50 63.40 34.20Q62.85 33.90 62.75 32.80Q62.65 31.10 62.93 29.50Q63.20 27.90 63.90 26.15Q64.55 24.55 65.53 23.05Q66.50 21.55 67.78 20.32Q69.05 19.10 70.60 18.22Q72.15 17.35 73.90 17.05Q74 16.50 74.08 16.10Q74.15 15.70 74.20 15.30Q74.30 14.75 74.30 14.75Q74.40 14.70 74.53 14.85Q74.65 15 74.75 15.25Q75.35 16.90 75.15 18.55Q74.95 20.20 74.43 21.90Q73.90 23.60 73.20 25.38Q72.50 27.15 72.05 28.95Q71.45 31.50 71.73 34.23Q72 36.95 73.85 39.15Q74 39.35 74 39.35Q73.95 39.40 73.70 39.25Q72.25 38.35 71.53 37.08Q70.80 35.80 70.50 34.40M72.25 16.70Q72.35 16.80 72.23 16.85Q72.10 16.90 71.70 17Q71.05 17.20 70.13 17.75Q69.20 18.30 68.18 19.15Q67.15 20 66.15 21.13Q65.15 22.25 64.40 23.55Q63.65 24.90 63.13 26.20Q62.60 27.50 62.28 28.57Q61.95 29.65 61.80 30.42Q61.65 31.20 61.65 31.50Q61.65 32.25 61.65 33.08Q61.65 33.90 61.85 34.55Q62.05 35.20 62.55 35.55Q63.05 35.90 64.05 35.75Q64.10 35.75 64.30 35.67Q64.50 35.60 64.70 35.52Q64.90 35.45 65.08 35.40Q65.25 35.35 65.30 35.35Q65.35 35.45 65.23 35.60Q65.10 35.75 64.90 35.92Q64.70 36.10 64.53 36.25Q64.35 36.40 64.30 36.45Q63.05 37.20 62.20 36.90Q61.35 36.60 60.88 35.77Q60.40 34.95 60.23 33.83Q60.05 32.70 60.10 31.80Q60.20 30.05 60.65 28.32Q61.10 26.60 61.80 24.85Q62.35 23.50 63.45 22.07Q64.55 20.65 65.92 19.45Q67.30 18.25 68.80 17.47Q70.30 16.70 71.70 16.65Q72.20 16.65 72.25 16.70M75.20 39.15Q75.30 39.30 75.25 39.35Q75.10 39.35 74.85 39.25Q74.70 39.15 74.05 38.65Q73.40 38.15 73.10 37.05Q73 36.65 72.93 36.02Q72.85 35.40 72.85 34.85Q72.85 34.30 72.93 33.90Q73 33.50 73.15 33.50Q73.30 33.50 73.48 34.10Q73.65 34.70 73.70 34.85Q73.85 35.55 73.98 36.08Q74.10 36.60 74.25 37.05Q74.45 37.60 74.78 38.30Q75.10 39 75.20 39.15ZM86.35 22.60Q85.95 24.30 85.23 26.17Q84.50 28.05 83.60 29.65Q83.60 29.75 83.48 29.98Q83.35 30.20 83.15 30.20Q83.05 30.20 83.03 29.90Q83.00 29.60 83.05 29.50Q83.05 28.70 83.25 27.38Q83.45 26.05 83.75 25.20Q83.85 24.90 84.08 23.75Q84.30 22.60 84.48 21.18Q84.65 19.75 84.68 18.42Q84.70 17.10 84.35 16.45L84.35 16.25Q84.55 16.10 84.80 16.35Q85.45 16.90 85.83 17.70Q86.20 18.50 86.38 19.38Q86.55 20.25 86.53 21.10Q86.50 21.95 86.35 22.60M88.30 22.40Q88.85 21.70 89.35 21.40Q89.85 21.10 90.35 20.90Q90.40 20.90 90.60 20.85Q90.80 20.80 90.90 20.95Q91.00 21.10 90.85 21.30Q90.70 21.50 90.60 21.60Q90.25 21.95 89.83 22.38Q89.40 22.80 89.05 23.20Q88.55 23.75 88.25 24.48Q87.95 25.20 87.80 25.95Q88.65 25.05 89.43 24.25Q90.20 23.45 91.10 22.75Q92.25 21.90 93.10 20.55Q93.95 19.20 94.30 16.60Q94.40 16.35 94.55 16.30Q94.70 16.25 94.70 16.65Q94.85 19.55 94.10 21.25Q93.35 22.95 91.85 24.10Q91.05 24.70 90.25 25.40Q89.45 26.10 88.73 26.95Q88.00 27.80 87.40 28.95Q86.80 30.10 86.35 31.60Q86.00 32.75 85.65 33.77Q85.30 34.80 84.90 35.75Q84.80 36.10 84.60 36.10Q84.45 36.05 84.45 35.60Q84.20 33.20 84.78 30.82Q85.35 28.45 86.15 25.90Q86.50 24.65 86.98 23.40Q87.45 22.15 87.40 20.55Q87.40 20 87.85 19.40Q88.30 18.80 88.95 18.27Q89.60 17.75 90.30 17.38Q91.00 17 91.50 16.85Q91.95 16.70 91.95 16.90Q91.95 17.10 91.65 17.40Q90.60 18.35 89.53 19.65Q88.45 20.95 88.30 22.40M83.95 39.20Q83.90 39.25 83.88 39.23Q83.85 39.20 83.60 39.05Q82.10 37.95 81.25 36.65Q80.40 35.35 80.03 33.98Q79.65 32.60 79.70 31.23Q79.75 29.85 80.05 28.55Q80.45 26.80 81.03 25.07Q81.60 23.35 82.10 21.72Q82.60 20.10 82.85 18.52Q83.10 16.95 82.85 15.50Q82.85 15.40 83.00 15.35Q83.05 15.35 83.10 15.42Q83.15 15.50 83.20 15.55Q84.15 17.15 84.15 18.82Q84.15 20.50 83.70 22.22Q83.25 23.95 82.58 25.73Q81.90 27.50 81.50 29.30Q81.00 31.60 81.43 34.20Q81.85 36.80 83.75 38.85Q83.85 39 83.95 39.05Q84.05 39.10 83.95 39.20M85.45 39.25Q85.35 39.25 85.25 39.20L85.05 39.10Q84.35 38.65 83.80 38.13Q83.25 37.60 82.85 36.60Q82.70 36.25 82.60 35.67Q82.50 35.10 82.48 34.60Q82.45 34.10 82.53 33.75Q82.60 33.40 82.80 33.45Q82.95 33.45 83.13 33.85Q83.30 34.25 83.40 34.65Q83.50 35.20 83.63 35.70Q83.75 36.20 83.95 36.60Q84.50 37.85 85.40 39Q85.50 39.25 85.45 39.25M93.60 16.80Q93.60 17.85 93.00 18.65Q92.40 19.45 91.55 20Q91.40 20.10 91.35 19.97Q91.30 19.85 91.30 19.80Q91.30 19.50 91.55 19.07Q91.80 18.65 92.13 18.17Q92.45 17.70 92.75 17.20Q93.05 16.70 93.15 16.30Q93.30 16.05 93.45 16.30Q93.60 16.55 93.60 16.80ZM113.15 15.90Q113.35 16.70 113.23 17.50Q113.10 18.30 112.83 19Q112.55 19.70 112.13 20.22Q111.70 20.75 111.30 21.05Q110.10 21.90 108.60 22.63Q107.10 23.35 105.65 23.90Q105.55 23.95 105.30 24.02Q105.05 24.10 104.95 23.95Q104.90 23.90 105.03 23.70Q105.15 23.50 105.20 23.45Q105.70 22.85 106.55 22.15Q107.40 21.45 108.05 21.05Q108.25 20.90 109.03 20.30Q109.80 19.70 110.63 18.88Q111.45 18.05 112.15 17.20Q112.85 16.35 112.90 15.75Q112.90 15.65 112.93 15.63Q112.95 15.60 112.95 15.55Q112.95 15.50 113.00 15.50Q113.10 15.55 113.13 15.67Q113.15 15.80 113.15 15.90M103.75 11.85Q103.05 14.90 101.90 18.02Q100.75 21.15 99.45 23.85Q99.35 24.10 99.18 24.52Q99.00 24.95 98.85 24.95Q98.75 24.85 98.78 24.42Q98.80 24 98.85 23.85Q99.00 23.10 99.25 21.95Q99.50 20.80 99.83 19.50Q100.15 18.20 100.48 16.95Q100.80 15.70 101.10 14.75Q102.10 11.40 102.40 8.13Q102.70 4.85 102.15 1.85Q102.10 1.65 102.13 1.55Q102.15 1.45 102.15 1.40Q102.40 1.30 102.60 1.70Q103.20 2.50 103.55 3.77Q103.90 5.05 104.03 6.48Q104.15 7.90 104.08 9.32Q104.00 10.75 103.75 11.85M100.85 0.60Q101.85 3.05 101.75 5.82Q101.65 8.60 100.95 11.55Q100.25 14.50 99.23 17.52Q98.20 20.55 97.35 23.50Q96.80 25.35 96.48 27.42Q96.15 29.50 96.15 31.57Q96.15 33.65 96.55 35.60Q96.95 37.55 97.90 39.20Q98.05 39.45 97.88 39.40Q97.70 39.35 97.60 39.25Q96.35 37.70 95.73 35.67Q95.10 33.65 94.98 31.40Q94.85 29.15 95.15 26.80Q95.45 24.45 96.05 22.35Q96.95 19.40 97.88 16.50Q98.80 13.60 99.50 10.85Q100.20 8.10 100.53 5.52Q100.85 2.95 100.50 0.60Q100.50 0.50 100.48 0.38Q100.45 0.25 100.55 0.25Q100.65 0.25 100.73 0.38Q100.80 0.50 100.85 0.60M114.10 38Q114.50 38.10 114.40 38.25Q114.30 38.40 114.15 38.45Q112.60 38.85 111.15 38.60Q109.70 38.35 108.75 37.65Q107.50 36.75 106.58 35.30Q105.65 33.85 104.80 32.55Q104.75 32.45 104.65 32.27Q104.55 32.10 104.60 32Q104.70 31.85 104.88 31.93Q105.05 32 105.10 32.05Q105.75 32.35 106.68 33Q107.60 33.65 108.05 34.20Q108.45 34.65 109.15 35.27Q109.85 35.90 110.68 36.45Q111.50 37 112.40 37.45Q113.30 37.90 114.10 38M115.70 36.90Q115.95 36.95 115.83 37.05Q115.70 37.15 115.50 37.15Q113.90 37.45 112.65 36.83Q111.40 36.20 110.33 35.17Q109.25 34.15 108.23 32.95Q107.20 31.75 106.05 30.80Q104.60 29.65 102.48 29.15Q100.35 28.65 97.90 29.60Q97.65 29.70 97.70 29.55Q97.75 29.40 97.85 29.30Q98.30 29 98.80 28.73Q99.30 28.45 99.75 28.30Q100.35 25.65 101.20 23.02Q102.05 20.40 102.90 17.65Q103.70 15.10 104.35 12.30Q105.00 9.50 104.90 6.35Q104.90 6.05 105.00 6.05Q105.10 6.05 105.13 6.20Q105.15 6.35 105.25 6.45Q105.75 7.50 105.75 9.25Q105.75 11 105.45 13.02Q105.15 15.05 104.65 17.15Q104.15 19.25 103.65 20.95Q104.65 19.90 105.88 19.17Q107.10 18.45 108.33 17.77Q109.55 17.10 110.60 16.25Q111.65 15.40 112.30 14.10Q112.30 14.05 112.33 14Q112.35 13.95 112.40 14.05Q112.40 14.10 112.43 14.20Q112.45 14.30 112.45 14.40Q112.35 16 111.50 17.07Q110.65 18.15 109.45 19Q108.25 19.85 106.85 20.60Q105.45 21.35 104.25 22.25Q102.80 23.35 102.30 24.90Q101.80 26.45 101.45 27.95Q101.70 27.60 101.98 27.17Q102.25 26.75 102.50 26.38Q102.75 26 102.95 25.80Q103.15 25.60 103.25 25.70Q103.30 25.75 103.23 26.02Q103.15 26.30 103.05 26.65Q102.95 27 102.85 27.35Q102.75 27.70 102.70 27.90Q102.95 27.95 103.13 27.95Q103.30 27.95 103.45 28Q104.60 26.35 106.15 25.23Q107.70 24.10 109.40 23.10Q110.55 22.40 111.63 21.60Q112.70 20.80 113.55 19.50Q113.60 19.35 113.70 19.45Q113.75 19.50 113.73 19.57Q113.70 19.65 113.75 19.80Q113.80 20.85 113.15 21.80Q112.50 22.75 111.55 23.55Q110.60 24.35 109.60 25Q108.60 25.65 108.05 26.10Q107.25 26.70 106.30 27.23Q105.35 27.75 104.50 28.20Q106.00 28.70 107.30 29.80Q108.45 30.70 109.45 31.82Q110.45 32.95 111.45 34Q112.45 35.05 113.48 35.85Q114.50 36.65 115.70 36.90M100.00 32.15Q99.90 32.45 99.73 33Q99.55 33.55 99.45 34.05Q99.35 34.30 99.33 34.55Q99.30 34.80 99.20 34.75Q99.05 34.70 98.98 34.35Q98.90 34 98.90 33.75Q98.90 33.40 98.90 32.95Q98.90 32.50 98.98 32.13Q99.05 31.75 99.28 31.50Q99.50 31.25 99.95 31.25Q100.60 31.30 101.38 31.73Q102.15 32.15 102.95 32.83Q103.75 33.50 104.55 34.33Q105.35 35.15 106.15 36Q107.00 36.95 108.03 37.92Q109.05 38.90 110.50 39.30Q110.70 39.40 110.70 39.48Q110.70 39.55 110.45 39.55Q109.45 39.55 108.43 39.13Q107.40 38.70 106.43 38.08Q105.45 37.45 104.63 36.75Q103.80 36.05 103.20 35.50Q102.35 34.70 101.53 33.80Q100.70 32.90 100.00 32.15M99.40 39.20Q99.50 39.35 99.38 39.40Q99.25 39.45 99.00 39.25Q98.40 38.70 97.90 37.92Q97.40 37.15 97.15 35.55Q96.95 34.60 96.88 33.52Q96.80 32.45 97.05 31.60Q97.30 30.75 98.00 30.17Q98.70 29.60 100.05 29.60Q100.40 29.60 100.85 29.70Q101.30 29.80 101.68 29.92Q102.05 30.05 102.28 30.23Q102.50 30.40 102.35 30.55Q102.30 30.70 101.83 30.65Q101.35 30.60 101.25 30.60Q100.65 30.50 100.08 30.48Q99.50 30.45 99.05 30.60Q98.60 30.75 98.33 31.17Q98.05 31.60 98.05 32.40Q98.05 34.10 98.35 35.60Q98.55 36.60 98.78 37.48Q99.00 38.35 99.40 39.20ZM129.65 18.85Q130.05 19.35 130.28 20.10Q130.50 20.85 130.45 21.72Q130.40 22.60 130.05 23.55Q129.70 24.50 128.95 25.40Q127.50 27.10 125.78 28.02Q124.05 28.95 122.65 28.95Q121.80 28.95 122.65 28.65Q123.10 28.50 123.73 28.17Q124.35 27.85 125.05 27.38Q125.75 26.90 126.48 26.25Q127.20 25.60 127.80 24.75Q128.80 23.35 128.98 22.02Q129.15 20.70 128.45 20Q127.85 19.40 127.05 19.32Q126.25 19.25 124.65 20.20Q123.20 21.05 122.05 22.30Q120.90 23.55 119.90 24.95Q119.35 25.65 119.18 25.65Q119.00 25.65 119.30 24.75Q119.90 23 120.98 21.50Q122.05 20 123.55 18.95Q124.65 18.20 125.58 17.90Q126.50 17.60 127.28 17.65Q128.05 17.70 128.65 18.02Q129.25 18.35 129.65 18.85M132.35 22.35Q132.15 23.55 131.73 24.38Q131.30 25.20 130.78 25.77Q130.25 26.35 129.73 26.70Q129.20 27.05 128.80 27.35Q128.60 27.50 128.50 27.40Q128.40 27.30 128.65 27.05Q129.55 26.30 130.48 25.02Q131.40 23.75 131.45 22.20Q131.45 19.55 130.15 18.15Q128.85 16.75 126.90 16.92Q124.95 17.10 122.85 18.45Q121.50 19.30 120.48 20.43Q119.45 21.55 118.70 22.82Q117.95 24.10 117.48 25.45Q117.00 26.80 116.80 28.15Q116.60 29.45 116.43 30.95Q116.25 32.45 116.43 33.90Q116.60 35.35 117.35 36.67Q118.10 38 119.70 38.95Q119.95 39.10 120.23 39.15Q120.50 39.20 120.50 39.25Q120.50 39.35 120.25 39.38Q120.00 39.40 119.70 39.30Q118.45 39.05 117.58 38.27Q116.70 37.50 116.15 36.50Q115.60 35.50 115.30 34.40Q115.00 33.30 114.95 32.40Q114.65 28.45 116.05 24.60Q116.35 23.80 116.83 22.80Q117.30 21.80 118.00 20.77Q118.70 19.75 119.65 18.77Q120.60 17.80 121.80 17.05Q122.95 16.35 124.20 16Q125.45 15.65 126.70 15.67Q127.95 15.70 129.05 16.13Q130.15 16.55 131 17.40Q131.75 18.20 132.18 19.45Q132.60 20.70 132.35 22.35M127.80 20.55Q128.40 21.25 127.95 22.72Q127.50 24.20 125.85 25.70Q124.95 26.55 124.10 27.07Q123.25 27.60 121.95 28Q121.40 29.90 121.25 31.75Q121.10 33.60 121.35 34.75Q121.40 35.20 121.68 35.63Q121.95 36.05 122.48 36.27Q123.00 36.50 123.85 36.45Q124.70 36.40 125.95 35.90Q126.30 35.75 126.38 35.83Q126.45 35.90 126.05 36.15Q125.15 36.85 124.15 37.13Q123.15 37.40 122.28 37.30Q121.40 37.20 120.78 36.70Q120.15 36.20 119.95 35.35Q119.55 33.60 119.60 31.70Q119.65 29.80 120.18 27.95Q120.70 26.10 121.68 24.48Q122.65 22.85 124.10 21.70Q126.80 19.55 127.80 20.55M127.30 36.50Q126.95 37 126.43 37.48Q125.90 37.95 125.23 38.33Q124.55 38.70 123.83 38.95Q123.10 39.20 122.35 39.20Q121.05 39.20 119.93 38.63Q118.80 38.05 118.20 36.30Q118.10 36.10 118.10 35.92Q118.10 35.75 118.20 35.75Q118.40 35.65 118.60 35.88Q118.80 36.10 119.00 36.35Q119.55 37 120.43 37.50Q121.30 38 122.10 38Q123.60 38 124.70 37.55Q125.80 37.10 126.80 36.35Q127.05 36.20 127.38 36.05Q127.70 35.90 127.30 36.50M126.60 21.90Q126.40 21.50 125.15 22.55Q124.00 23.45 123.33 24.63Q122.65 25.80 122.15 27.20Q123.10 26.75 123.90 26.17Q124.70 25.60 125.40 25.05Q126.15 24.40 126.50 23.35Q126.85 22.30 126.60 21.90ZM146.50 17.05Q146.55 17.10 146.55 17.27Q146.55 17.45 146.50 17.55Q146.05 19 144.95 19.60Q143.85 20.20 143 20.20Q141.95 20.20 140.85 20.02Q139.75 19.85 138.75 19.10Q138.65 19 138.50 18.90Q138.35 18.80 138.35 18.70Q138.35 18.55 138.50 18.47Q138.65 18.40 138.75 18.35Q139.20 18.25 139.93 18.17Q140.65 18.10 141.35 18.20Q141.85 18.30 142.55 18.30Q143.25 18.30 143.98 18.20Q144.70 18.10 145.30 17.88Q145.90 17.65 146.20 17.20Q146.35 17 146.50 17.05M146.85 15.50L146.70 15.75Q145.85 16.85 144.90 17.17Q143.95 17.50 142.90 17.45Q141.85 17.40 140.78 17.17Q139.70 16.95 138.65 16.90Q137.25 16.85 135.85 17.75Q134.45 18.65 133.45 20.90Q133.30 21.20 133.25 21.02Q133.20 20.85 133.25 20.70Q133.65 19.20 134.20 18.20Q134.75 17.20 135.38 16.57Q136 15.95 136.70 15.65Q137.40 15.35 138.15 15.25Q139 12.40 139.48 9.67Q139.95 6.95 139.55 4.50Q139.55 4.30 139.55 4.30Q139.65 4.25 139.75 4.35Q139.85 4.45 139.85 4.50Q140.95 6.90 140.75 9.63Q140.55 12.35 139.75 15.35Q140 15.40 140.15 15.40Q140.30 15.40 140.50 15.40Q140.75 14.10 140.98 12.63Q141.20 11.15 141.33 9.80Q141.45 8.45 141.40 7.35Q141.35 6.25 141.05 5.70Q140.90 5.25 141.05 5.25Q141.15 5.25 141.20 5.35Q141.25 5.45 141.35 5.55Q142.05 6.25 142.45 7.45Q142.85 8.65 143 10Q143.15 11.35 143.10 12.67Q143.05 14 142.80 15L142.60 15.80Q142.75 15.90 142.90 15.90Q143.05 15.90 143.20 15.95Q143.50 14.45 143.73 12.95Q143.95 11.45 143.90 9.80Q143.90 9.45 143.95 9.45Q144.05 9.45 144.10 9.60Q144.15 9.75 144.20 9.85Q144.80 10.95 144.78 12.60Q144.75 14.25 144.50 16.10Q145.60 16.10 146.60 15.50Q146.85 15.35 146.85 15.50M136.50 18.90Q136.50 19.15 136.23 19.40Q135.95 19.65 135.80 19.75Q135.55 19.95 135.23 20.22Q134.90 20.50 134.65 20.80Q134.40 21.20 134.18 21.50Q133.95 21.80 133.80 22.35Q133.75 22.45 133.68 22.52Q133.60 22.60 133.55 22.55Q133.40 22.40 133.55 21.90Q133.75 21.15 133.95 20.68Q134.15 20.20 134.70 19.65Q134.90 19.45 135.20 19.25Q135.50 19.05 135.80 18.90Q136.10 18.75 136.30 18.75Q136.50 18.75 136.50 18.90M140.40 39Q140.65 38.90 140.60 39.05Q140.55 39.20 140.45 39.25Q139.55 39.55 138.55 39.15Q137.55 38.75 136.70 37.90Q135.85 37.05 135.25 35.92Q134.65 34.80 134.50 33.70Q134.25 31.35 134.45 29.15Q134.65 26.95 135.20 24.80L136.05 21.65Q135.75 21.65 135.45 21.50Q135.10 21.40 135.10 21.25Q135.10 21.15 135.45 20.95Q136.85 20.25 138.28 20.35Q139.70 20.45 141.15 20.70Q142.05 20.85 142.98 20.93Q143.90 21 145 20.55Q145.10 20.45 145.20 20.50Q145.30 20.60 145.15 20.85Q144.85 21.50 144.30 21.80Q143.75 22.10 143.15 22.25Q142.75 23.55 142.45 24.57Q142.15 25.60 141.95 26.30Q141.40 28.70 140.68 31.17Q139.95 33.65 139.70 35.35Q139.60 35.90 139.50 35.95Q139.40 36 139.30 35.75Q139.20 35.50 139.15 35.35Q138.95 33.90 139.08 32.33Q139.20 30.75 139.55 29.10Q139.90 27.45 140.35 25.77Q140.80 24.10 141.30 22.40Q141.05 22.40 140.80 22.40Q140.55 22.40 140.30 22.35Q139.90 23.40 139.48 24.42Q139.05 25.45 138.65 26.35Q138.60 26.45 138.43 26.82Q138.25 27.20 138.15 27.20Q137.95 27.15 138 26.73Q138.05 26.30 138.05 26.15Q138.15 25.40 138.38 24.40Q138.60 23.40 138.80 22.25Q138.55 22.20 138.25 22.18Q137.95 22.15 137.65 22.05Q137.35 23.05 137.08 24Q136.80 24.95 136.55 25.90Q136.15 27.65 135.95 29.63Q135.75 31.60 135.95 33.70Q136.05 34.65 136.48 35.65Q136.90 36.65 137.50 37.45Q138.10 38.25 138.88 38.70Q139.65 39.15 140.40 39M140.85 37.90Q141.10 37.70 141.15 37.88Q141.20 38.05 140.95 38.20Q140.75 38.35 140.43 38.42Q140.10 38.50 139.70 38.45Q139.30 38.40 138.85 38.15Q138.40 37.90 138 37.35Q137.65 36.90 137.43 36.05Q137.20 35.20 137.10 34.38Q137 33.55 137.05 32.95Q137.10 32.35 137.30 32.35Q137.55 32.35 137.68 33.05Q137.80 33.75 137.90 34.20Q138.10 35 138.45 35.85Q138.80 36.70 139.20 37.20Q139.70 37.85 140.10 37.98Q140.50 38.10 140.85 37.90Z"/></g></g></svg>