<svg xmlns="http://www.w3.org/2000/svg" viewBox="0 12.899999618530273 98.1500015258789 32.75" data-asc="0.898" width="98.1500015258789" height="32.75"><defs/><g fill="#ff3c00"><g transform="translate(0, 0)"><path d="M30.20 45.65Q27.25 45.65 24.43 45.32Q21.60 45 18.95 44.35L21.75 36.10Q23.65 36.60 25.85 36.92Q28.05 37.25 30.00 37.25Q31.60 37.25 32.80 37.17Q34 37.10 35.10 36.95L35.50 34.45L31.35 34.05Q26.45 33.55 24.55 31.82Q22.65 30.10 22.65 27.10Q22.65 25.75 22.95 24.10Q23.75 19.85 25.28 17.40Q26.80 14.95 29.65 13.92Q32.50 12.90 37.20 12.90Q39.95 12.90 42.60 13.20Q45.25 13.50 47.70 14.15L45.10 22.15Q43.15 21.80 41.40 21.60Q39.65 21.40 37.50 21.40Q36.35 21.40 35.55 21.45Q34.75 21.50 33.60 21.65L33.20 24.10L36.55 24.45Q40.15 24.80 42.20 25.82Q44.25 26.85 45.10 28.37Q45.95 29.90 45.95 31.90Q45.95 32.50 45.88 33.13Q45.80 33.75 45.70 34.45Q45 38.50 43.45 40.80Q41.90 43.10 39.80 44.13Q37.70 45.15 35.23 45.40Q32.75 45.65 30.20 45.65M24.45 15.70L5.15 13.65L26.65 13.65Q26 14.05 25.48 14.57Q24.95 15.10 24.45 15.70M22.15 20.65L1.40 18.45L22.90 18.45L22.15 20.65M21.20 25.50L0 23.25L21.55 23.25Q21.50 23.40 21.48 23.55Q21.45 23.70 21.45 23.85Q21.40 24.20 21.33 24.60Q21.25 25.00 21.20 25.50M21.60 30.30L0.45 28.05L21.20 28.05Q21.25 28.70 21.33 29.22Q21.40 29.75 21.60 30.30M28.20 35.10L1.75 32.85L23.30 32.85Q24.95 34.45 28.20 35.10M18.85 39.85L0.90 37.65L19.60 37.65L18.85 39.85M17.25 44.70L0.05 42.50L18 42.50L17.25 44.70ZM58.30 44.90L65.60 13.65L78 13.65L78.90 29.55L79.25 29.55L85.75 13.65L98.15 13.65L94.45 44.90L84.50 44.90L86.60 29.75L86.25 29.75L80 44.90L72.75 44.90L71.70 29.75L71.45 29.75L68.20 44.90L58.30 44.90M63.55 15.90L42.60 13.65L64.05 13.65L63.55 15.90M62.40 20.70L41.45 18.45L62.95 18.45L62.40 20.70M61.30 25.50L40.30 23.25L61.80 23.25L61.30 25.50M60.15 30.30L39.15 28.05L60.70 28.05L60.15 30.30M59.05 35.10L38 32.85L59.55 32.85L59.05 35.10M57.90 39.90L36.85 37.65L58.45 37.65L57.90 39.90M56.80 44.75L35.70 42.50L57.30 42.50L56.80 44.75Z"/></g></g></svg>