<svg xmlns="http://www.w3.org/2000/svg" viewBox="0 17.950000762939453 185.35000610351562 27.549999237060547" data-asc="0.898" width="185.35000610351562" height="27.549999237060547"><defs/><g fill="#ffffff"><g transform="translate(0, 0)"><path d="M32.15 45.50Q29.80 45.50 27.38 45.25Q24.95 45 22.60 44.35L25.05 36.95Q28.95 38.05 32.55 38.05Q33.45 38.05 34.27 38.02Q35.10 38 36 37.90L36.25 36.30L33.10 35.95Q28.95 35.50 27.30 34Q25.65 32.50 25.65 29.90Q25.65 29.35 25.73 28.70Q25.80 28.05 25.90 27.40Q26.55 23.80 27.88 21.75Q29.20 19.70 31.63 18.82Q34.05 17.95 38 17.95Q42.75 17.95 46.95 19.00L44.55 26.30Q42.80 25.90 41.35 25.70Q39.90 25.50 38.20 25.50Q37.25 25.50 36.65 25.52Q36.05 25.55 35.20 25.65L34.95 27.10L37.45 27.40Q41.85 27.90 43.68 29.65Q45.50 31.40 45.50 34.05Q45.50 34.50 45.45 35Q45.40 35.50 45.30 36Q44.70 39.45 43.40 41.40Q42.10 43.35 40.30 44.23Q38.50 45.10 36.40 45.30Q34.30 45.50 32.15 45.50M26.80 20.55L7.30 18.45L28.85 18.45Q28.25 18.90 27.73 19.40Q27.20 19.90 26.80 20.55M24.75 25.50L3.85 23.25L25.40 23.25Q25.20 23.75 25.05 24.32Q24.90 24.90 24.75 25.50M24.15 30.30L2.95 28.05L24.25 28.05Q24.20 28.50 24.18 28.97Q24.15 29.45 24.15 29.90L24.15 30.30M26.05 35.10L4.90 32.85L24.60 32.85Q25.05 34.15 26.05 35.10M22.50 39.85L1.65 37.65L23.20 37.65L22.50 39.85M20.90 44.75L0 42.50L21.60 42.50L20.90 44.75ZM61.65 44.90L64.95 25.95L59.40 25.95L60.75 18.45L80.50 18.45L79.15 25.95L73.75 25.95L70.45 44.90L61.65 44.90M58.75 20.70L37.55 18.45L59.10 18.45L58.75 20.70M57.90 25.50L36.70 23.25L58.30 23.25L57.90 25.50M62.70 30.30L41.50 28.05L63.10 28.05L62.70 30.30M61.85 35.10L40.65 32.85L62.25 32.85L61.85 35.10M61 39.90L39.80 37.65L61.40 37.65L61 39.90M60.15 44.75L38.95 42.50L60.55 42.50L60.15 44.75ZM99.55 45.50Q94.10 45.50 91.93 43.38Q89.75 41.25 89.75 37Q89.75 35.85 89.90 34.50Q90.05 33.15 90.30 31.70Q91.10 27.10 92.65 24.05Q94.20 21.00 97 19.47Q99.80 17.95 104.40 17.95Q109.90 17.95 112.15 20.07Q114.40 22.20 114.40 26.50Q114.40 27.60 114.25 28.92Q114.10 30.25 113.85 31.70Q113.05 36.25 111.50 39.32Q109.95 42.40 107.10 43.95Q104.25 45.50 99.55 45.50M93.55 20.10L78.20 18.45L95.60 18.45Q94.40 19.15 93.55 20.10M90.40 25.25L71.50 23.25L91.25 23.25Q91.05 23.75 90.83 24.22Q90.60 24.70 90.40 25.25M98.05 37.90L101 37.90Q102.30 37.90 103.13 37.60Q103.95 37.30 104.15 36L106.05 25.55L103 25.55Q101.80 25.55 100.95 25.85Q100.10 26.15 99.90 27.40L98.05 37.90M89.05 30.15L69.50 28.05L89.50 28.05L89.05 30.15M88.30 34.95L68.60 32.85L88.55 32.85Q88.50 33.40 88.42 33.92Q88.35 34.45 88.30 34.95M88.45 39.75L68.80 37.65L88.25 37.65Q88.25 38.20 88.33 38.72Q88.40 39.25 88.45 39.75M90.60 44.35L73.15 42.50L89.30 42.50Q89.55 43 89.88 43.48Q90.20 43.95 90.60 44.35ZM127.10 44.90L131.70 18.45L144.40 18.45Q147.20 18.45 148.78 19.30Q150.35 20.15 151.03 21.65Q151.70 23.15 151.70 25.05Q151.70 26.55 151.28 28.70Q150.85 30.85 149.73 32.88Q148.60 34.90 146.45 36.10L149.30 44.90L139.95 44.90L138.05 37.20L136.85 37.20L135.50 44.90L127.10 44.90M129.70 20.70L108.50 18.45L130.05 18.45L129.70 20.70M128.85 25.50L107.65 23.25L129.25 23.25L128.85 25.50M138.05 30.35L139.65 30.35Q140.65 30.35 141.38 30.07Q142.10 29.80 142.25 28.85L142.55 27.10Q142.55 27.00 142.58 26.92Q142.60 26.85 142.60 26.80Q142.60 26.10 141.88 25.92Q141.15 25.75 139.95 25.75L138.85 25.75L138.05 30.35M128 30.30L106.80 28.05L128.40 28.05L128 30.30M127.15 35.10L105.95 32.85L127.55 32.85L127.15 35.10M126.30 39.90L105.10 37.65L126.70 37.65L126.30 39.90M125.45 44.75L104.25 42.50L125.85 42.50L125.45 44.75ZM163.15 44.90L167.75 18.45L185.35 18.45L183.00 25.95L174.85 25.95L174.25 29.35L181.75 29.35L180.90 34.15L173.45 34.15L172.85 37.55L182.10 37.55L180.80 44.90L163.15 44.90M165.75 20.70L144.55 18.45L166.10 18.45L165.75 20.70M164.90 25.50L143.70 23.25L165.30 23.25L164.90 25.50M164.05 30.30L142.85 28.05L164.45 28.05L164.05 30.30M163.20 35.10L142.00 32.85L163.60 32.85L163.20 35.10M162.35 39.90L141.15 37.65L162.75 37.65L162.35 39.90M161.50 44.75L140.30 42.50L161.90 42.50L161.50 44.75Z"/></g></g></svg>